<?xml version="1.0" encoding="iso-8859-1"?>
<!-- Generator: Adobe Illustrator 19.0.0, SVG Export Plug-In . SVG Version: 6.00 Build 0)  -->
<svg xmlns="http://www.w3.org/2000/svg" xmlns:xlink="http://www.w3.org/1999/xlink" version="1.1" id="Layer_1" x="0px" y="0px" viewBox="0 0 511.999 511.999" style="enable-background:new 0 0 511.999 511.999;" xml:space="preserve">
<path style="fill:#495DD9;" d="M8.17,309.172c0,0,4.103,7.691,9.116,17.092c5.013,9.4,20.909,17.092,35.323,17.092h406.783  c14.414,0,30.309-7.691,35.323-17.092c5.013-9.4,9.116-17.092,9.116-17.092H8.17z"/>
<path style="fill:#5D8AE1;" d="M397.671,260.342H114.328c-4.512,0-8.17-3.657-8.17-8.17c0-4.513,3.658-8.17,8.17-8.17h283.343  c4.512,0,8.17,3.657,8.17,8.17C405.841,256.685,402.183,260.342,397.671,260.342z"/>
<path style="fill:#495DD9;" d="M256,116.99c-9.703,4.347-16.34,13.116-16.34,23.235v110.067h32.681V140.224  C272.34,130.106,265.703,121.337,256,116.99z"/>
<ellipse style="fill:#6DB4F5;" cx="256" cy="303.474" rx="69.752" ry="77.103"/>
<g>
	<circle style="fill:#48449E;" cx="395.394" cy="369.185" r="25.828"/>
	<circle style="fill:#48449E;" cx="116.605" cy="369.185" r="25.828"/>
</g>
<path style="fill:#FFFFFF;" d="M287.81,288.855h-63.621c-4.512,0-8.17-3.657-8.17-8.17c0-4.513,3.658-8.17,8.17-8.17h63.621  c4.512,0,8.17,3.657,8.17,8.17C295.98,285.198,292.322,288.855,287.81,288.855z"/>
<path d="M510.835,304.968c-1.476-2.462-4.136-3.967-7.006-3.967H358.437c-4.512,0-8.17,3.657-8.17,8.17  c0,4.512,3.658,8.17,8.17,8.17h131.776l-2.708,5.078c-3.215,6.025-15.92,12.766-28.114,12.766H328.316  c3.606-9.81,5.61-20.506,5.61-31.71c0-15.73-3.928-30.468-10.744-43.132h74.489c4.512,0,8.17-3.657,8.17-8.17  c0-4.513-3.658-8.17-8.17-8.17h-85.901c-8.611-9.668-19.295-17.104-31.26-21.455v-82.323c0-13.082-8.112-24.842-21.172-30.691  c-2.124-0.951-4.555-0.951-6.679,0c-13.059,5.849-21.172,17.608-21.172,30.691v82.323c-11.966,4.351-22.649,11.787-31.26,21.455  h-85.899c-4.512,0-8.17,3.657-8.17,8.17c0,4.513,3.658,8.17,8.17,8.17h74.489c-6.816,12.664-10.744,27.402-10.744,43.132  c0,11.204,2.004,21.901,5.61,31.71H52.608c-12.193,0-24.9-6.741-28.114-12.766l-2.707-5.078h131.965c4.512,0,8.17-3.658,8.17-8.17  c0-4.513-3.658-8.17-8.17-8.17H8.17c-2.869,0-5.53,1.505-7.006,3.967c-1.476,2.461-1.553,5.515-0.204,8.048l9.116,17.092  c6.405,12.009,25.088,21.417,42.532,21.417h34.957c-3.143,5.149-4.955,11.195-4.955,17.657c0,18.746,15.251,33.997,33.998,33.997  s33.998-15.251,33.998-33.997c0-6.462-1.813-12.508-4.955-17.657h46.016c14.049,22.454,37.643,37.221,64.334,37.221  s50.285-14.767,64.334-37.221h46.016c-3.143,5.149-4.956,11.195-4.956,17.657c0,18.746,15.251,33.997,33.998,33.997  c18.747,0,33.997-15.251,33.997-33.997c0-6.462-1.813-12.508-4.956-17.657h34.957c17.444,0,36.126-9.408,42.532-21.417l9.116-17.092  C512.388,310.483,512.312,307.429,510.835,304.968z M134.265,369.183c0,9.737-7.921,17.656-17.657,17.656  s-17.657-7.921-17.657-17.656c0-9.736,7.921-17.657,17.657-17.657S134.265,359.447,134.265,369.183z M247.829,140.224  c0-5.452,3.053-10.555,8.17-13.946c5.117,3.391,8.17,8.494,8.17,13.946v78.447c-2.686-0.307-5.411-0.471-8.17-0.471  s-5.484,0.163-8.17,0.471V140.224z M256,372.406c-33.959,0-61.586-30.923-61.586-68.932s27.627-68.933,61.586-68.933  s61.586,30.924,61.586,68.933S289.958,372.406,256,372.406z M413.05,369.183c0,9.737-7.921,17.656-17.656,17.656  c-9.736,0-17.657-7.921-17.657-17.656c0-9.736,7.921-17.657,17.657-17.657C405.13,351.525,413.05,359.447,413.05,369.183z"/>
<path d="M287.81,272.515h-63.621c-4.512,0-8.17,3.657-8.17,8.17c0,4.513,3.658,8.17,8.17,8.17h63.621c4.512,0,8.17-3.657,8.17-8.17  C295.98,276.172,292.322,272.515,287.81,272.515z"/>
<g>
</g>
<g>
</g>
<g>
</g>
<g>
</g>
<g>
</g>
<g>
</g>
<g>
</g>
<g>
</g>
<g>
</g>
<g>
</g>
<g>
</g>
<g>
</g>
<g>
</g>
<g>
</g>
<g>
</g>
</svg>
